<svg width="859" height="806" xmlns="http://www.w3.org/2000/svg">
<polygon points="110,803 110,805 110,804 111,803 114,803 115,804 118,804 119,805 121,805 119,805 118,804 115,804 114,803" style="fill:none;stroke:black;stroke-width:1" />
<polygon points="4,802 4,804 5,805 6,805 4,803 5,802 6,802 7,803 8,803 10,805 11,805 9,803 7,803 6,802" style="fill:none;stroke:black;stroke-width:1" />
<polygon points="28,801 28,803 31,805 33,805 30,804 28,802 29,801 32,801 33,802 38,803 41,805 43,805 41,805 38,803 36,803 32,801" style="fill:none;stroke:black;stroke-width:1" />
<polygon points="438,801 438,803 507,805 447,804 438,802 448,800 448,798 445,801" style="fill:none;stroke:black;stroke-width:1" />
<polygon points="28,794 28,796 56,805 28,795 29,793 70,805" style="fill:none;stroke:black;stroke-width:1" />
<polygon points="574,792 574,803 575,804 575,805 575,804 574,803" style="fill:none;stroke:black;stroke-width:1" />
<polygon points="4,792 4,794 17,805 19,805 12,801 4,793 5,792 8,793 19,803 25,805 18,802 9,793" style="fill:none;stroke:black;stroke-width:1" />
<polygon points="420,789 440,790 441,793 431,796 491,796 490,801 482,801 493,799 491,796 431,796 442,791" style="fill:none;stroke:black;stroke-width:1" />
<polygon points="834,787 836,805 836,799 834,793 834,788 835,787 839,794 840,805 839,794 837,788" style="fill:none;stroke:black;stroke-width:1" />
<polygon points="99,784 101,794 107,801 109,801 108,801 103,796 103,795 101,793 101,792 100,791 100,787 99,786" style="fill:none;stroke:black;stroke-width:1" />
<polygon points="801,776 796,780 794,784 776,802 774,802 778,801 794,785 796,781" style="fill:none;stroke:black;stroke-width:1" />
<polygon points="809,775 808,781 802,791 795,796 792,805 794,798 797,795 800,794 804,789 808,781" style="fill:none;stroke:black;stroke-width:1" />
<polygon points="645,775 644,776 642,776 640,778 640,780 639,781 639,787 644,793 646,794 649,794 653,791 653,789 654,788 654,783 651,777 647,775" style="fill:none;stroke:black;stroke-width:1" />
<polygon points="645,775 649,776 652,779 654,783 654,788 649,794 646,794 644,793 639,787 639,781 640,779" style="fill:none;stroke:black;stroke-width:1" />
<polygon points="238,805 226,784 204,775 163,780 120,796 159,781 204,775 225,784" style="fill:none;stroke:black;stroke-width:1" />
<polygon points="134,774 135,774 136,775 137,775 137,774 136,775 135,774" style="fill:none;stroke:black;stroke-width:1" />
<polygon points="98,776 98,780 97,773 83,776 53,793 23,786 80,805 23,785 53,793 91,773" style="fill:none;stroke:black;stroke-width:1" />
<polygon points="637,776 635,783 638,791 661,805 643,795 636,787 635,781 639,775 645,772 652,775 656,781 654,798 668,805 654,797 656,781 653,775 645,772" style="fill:none;stroke:black;stroke-width:1" />
<polygon points="844,769 842,779 841,780 842,800 841,780 842,779" style="fill:none;stroke:black;stroke-width:1" />
<polygon points="242,805 235,784 210,769 180,770 113,793 128,802 162,805 124,801 115,792 180,770 210,769 235,785" style="fill:none;stroke:black;stroke-width:1" />
<polygon points="848,766 846,768 856,805 846,768 848,767 854,776 858,805 854,776" style="fill:none;stroke:black;stroke-width:1" />
<polygon points="430,759 431,761 457,761 457,758 438,758 437,757 432,757" style="fill:none;stroke:black;stroke-width:1" />
<polygon points="430,759 432,757 437,757 438,758 456,758 457,760 456,761 432,761" style="fill:none;stroke:black;stroke-width:1" />
<polygon points="506,756 505,755 502,756 490,767 479,773 477,776 477,779 477,776 480,773 491,767 504,755" style="fill:none;stroke:black;stroke-width:1" />
<polygon points="604,750 634,760 642,766 643,770 642,765 640,763" style="fill:none;stroke:black;stroke-width:1" />
<polygon points="430,751 430,754 455,755 455,752 453,752 452,751 433,751 432,750" style="fill:none;stroke:black;stroke-width:1" />
<polygon points="430,752 432,750 433,751 452,751 454,752 455,754 454,755 443,755 442,754 431,754" style="fill:none;stroke:black;stroke-width:1" />
<polygon points="616,743 631,749 641,751 641,748 640,747 641,750 638,751" style="fill:none;stroke:black;stroke-width:1" />
<polygon points="602,743 606,805 603,743 702,778 705,783 691,805 705,784 703,778" style="fill:none;stroke:black;stroke-width:1" />
<polygon points="789,739 756,753 743,772 762,748 782,742 725,805 783,739 790,749 781,766 741,805 766,784 787,756" style="fill:none;stroke:black;stroke-width:1" />
<polygon points="305,805 309,762 334,740 356,741 382,752 391,761 392,785 392,761 418,779 372,746 334,740 309,762" style="fill:none;stroke:black;stroke-width:1" />
<polygon points="193,739 163,751 156,752 151,756 146,756 151,756 157,752 163,751" style="fill:none;stroke:black;stroke-width:1" />
<polygon points="637,738 632,738 631,739 628,739 627,740 622,740 621,741 617,741 621,741 622,740 627,740 628,739 631,739 632,738 636,738 637,740" style="fill:none;stroke:black;stroke-width:1" />
<polygon points="428,739 438,741 476,740 462,738" style="fill:none;stroke:black;stroke-width:1" />
<polygon points="429,739 430,738 462,738 471,740 470,741 438,741" style="fill:none;stroke:black;stroke-width:1" />
<polygon points="776,735 777,735 780,738 781,738 779,736 778,736 777,735" style="fill:none;stroke:black;stroke-width:1" />
<polygon points="414,734 416,736 416,742 417,743 417,747 418,748 418,755 418,748 417,747 417,743 416,742 416,736" style="fill:none;stroke:black;stroke-width:1" />
<polygon points="259,733 235,738 209,747 209,750 214,754 216,764 213,751 209,749 210,747 235,738" style="fill:none;stroke:black;stroke-width:1" />
<polygon points="795,739 782,732 762,739 716,805 753,750 772,733 790,735 796,746 775,779 747,804 789,762" style="fill:none;stroke:black;stroke-width:1" />
<polygon points="402,731 411,758 402,734 403,731 407,734 409,744 406,732" style="fill:none;stroke:black;stroke-width:1" />
<polygon points="553,805 512,766 548,793 549,769 522,727 508,750 514,764 479,779 506,783 479,780 507,761 507,785 394,784 508,785 509,763" style="fill:none;stroke:black;stroke-width:1" />
<polygon points="520,727 539,751 549,769 547,793 509,758 508,750" style="fill:none;stroke:black;stroke-width:1" />
<polygon points="393,727 396,742 409,765 411,760 414,762 411,746 414,747 416,754 413,745 411,745 414,761 410,760 408,765 400,749 401,740 398,729" style="fill:none;stroke:black;stroke-width:1" />
<polygon points="394,727 395,727 399,732 399,735 400,736 400,739 401,740 401,746 400,747 397,744 397,742 396,741 396,739 394,735 394,732 393,731 393,728" style="fill:none;stroke:black;stroke-width:1" />
<polygon points="639,736 641,745 649,754 711,776 730,749 727,740 670,725 650,727" style="fill:none;stroke:black;stroke-width:1" />
<polygon points="639,736 653,726 670,725 728,744 647,732 729,743 730,748 706,776 650,754" style="fill:none;stroke:black;stroke-width:1" />
<polygon points="715,747 705,744 713,746 715,748 714,749 696,746 696,751 692,756 693,768 692,757 696,752 697,746 708,749 715,749" style="fill:none;stroke:black;stroke-width:1" />
<polygon points="260,725 157,757 144,772 214,766 238,783 245,805 238,782 217,767 153,775 144,768 258,724 261,805" style="fill:none;stroke:black;stroke-width:1" />
<polygon points="384,728 400,763 447,778 491,760 508,732 483,765 433,778 422,773 423,735 425,767 414,772 399,761 390,724 461,735 512,726 443,730 388,720" style="fill:none;stroke:black;stroke-width:1" />
<polygon points="384,728 389,720 443,730 512,727 461,735 419,733 389,724 399,761 389,751" style="fill:none;stroke:black;stroke-width:1" />
<polygon points="695,721 696,726 712,732 727,734 732,736 706,730 695,724 697,719" style="fill:none;stroke:black;stroke-width:1" />
<polygon points="346,728 343,736 362,740 384,748 381,738 382,714 368,713 355,718" style="fill:none;stroke:black;stroke-width:1" />
<polygon points="348,726 361,715 380,713 383,717 381,723 381,738 384,748 362,740 346,737 343,735" style="fill:none;stroke:black;stroke-width:1" />
<polygon points="380,720 372,720 361,724 347,734 366,722 372,720" style="fill:none;stroke:black;stroke-width:1" />
<polygon points="185,703 185,705 186,706 186,708 186,706 185,705" style="fill:none;stroke:black;stroke-width:1" />
<polygon points="15,703 41,711 67,710 41,711" style="fill:none;stroke:black;stroke-width:1" />
<polygon points="810,702 782,716 779,726 788,725 794,730 795,736 793,728 789,725 779,725 781,723 781,717" style="fill:none;stroke:black;stroke-width:1" />
<polygon points="461,710 461,722 461,710 468,703 484,702 497,709 497,719 496,707 484,702 468,703" style="fill:none;stroke:black;stroke-width:1" />
<polygon points="61,700 64,703 65,703 66,704 65,703 64,703" style="fill:none;stroke:black;stroke-width:1" />
<polygon points="573,702 576,699 586,699 587,700 589,700 590,701 591,701 590,700 587,700 586,699 575,699" style="fill:none;stroke:black;stroke-width:1" />
<polygon points="401,711 401,718 406,723 455,727 455,720 448,706 439,698 431,695 412,697 404,704" style="fill:none;stroke:black;stroke-width:1" />
<polygon points="401,711 404,705 413,697 431,695 441,700 448,707 454,717 455,726 444,727 406,723 401,718" style="fill:none;stroke:black;stroke-width:1" />
<polygon points="409,721 418,711 426,707 436,708 442,713 441,716 445,720 442,724 445,722 441,715 442,713 451,717 436,708 426,707 417,711" style="fill:none;stroke:black;stroke-width:1" />
<polygon points="858,694 832,725 804,775" style="fill:none;stroke:black;stroke-width:1" />
<polygon points="538,694 543,697 532,706 528,717 532,707 542,698 543,701 543,694 531,699 526,709 526,723 545,751 545,736 544,750 526,723 527,706" style="fill:none;stroke:black;stroke-width:1" />
<polygon points="0,694 1,695 2,695 3,696 1,694" style="fill:none;stroke:black;stroke-width:1" />
<polygon points="457,700 454,711 462,727 471,728 458,722 454,708 463,695 473,691 488,693 501,706 499,720 482,728 499,721 501,706 492,695 473,691" style="fill:none;stroke:black;stroke-width:1" />
<polygon points="315,690 310,690 309,752 320,742 331,736 332,728 328,703 325,697" style="fill:none;stroke:black;stroke-width:1" />
<polygon points="315,690 328,703 332,728 331,735 319,742 310,752 309,698 310,691" style="fill:none;stroke:black;stroke-width:1" />
<polygon points="837,689 835,691 835,692 832,695 832,696 831,697 829,697 831,697 835,693 835,692 837,690" style="fill:none;stroke:black;stroke-width:1" />
<polygon points="858,686 794,777 767,805 794,778" style="fill:none;stroke:black;stroke-width:1" />
<polygon points="75,686 75,688 77,690 75,688" style="fill:none;stroke:black;stroke-width:1" />
<polygon points="414,682 412,681 416,691 410,693 394,709 380,709 378,707 378,683 378,708 397,708 412,692 416,692" style="fill:none;stroke:black;stroke-width:1" />
<polygon points="593,675 594,721 596,721 596,675" style="fill:none;stroke:black;stroke-width:1" />
<polygon points="594,675 596,676 596,720 595,721 593,706 593,676" style="fill:none;stroke:black;stroke-width:1" />
<polygon points="62,675 62,679 67,685 69,689 76,696 79,697 69,688 67,684 63,680" style="fill:none;stroke:black;stroke-width:1" />
<polygon points="564,674 562,673 556,673 555,674 553,674 552,676 552,687 552,676 556,673 562,673 565,676 565,679" style="fill:none;stroke:black;stroke-width:1" />
<polygon points="546,672 546,730 548,756 551,759 549,673" style="fill:none;stroke:black;stroke-width:1" />
<polygon points="547,672 549,674 550,759 546,730 545,674" style="fill:none;stroke:black;stroke-width:1" />
<polygon points="378,678 378,680 380,680 386,675 398,674 410,679 409,676 400,671 388,671 383,673" style="fill:none;stroke:black;stroke-width:1" />
<polygon points="408,678 409,677 410,678 409,679" style="fill:none;stroke:black;stroke-width:1" />
<polygon points="378,679 380,676 388,671 400,671 409,677 407,678 398,674 390,674 384,676 380,680" style="fill:none;stroke:black;stroke-width:1" />
<polygon points="588,670 570,680 570,805 570,680 590,671 567,679 568,805 567,679" style="fill:none;stroke:black;stroke-width:1" />
<polygon points="308,670 308,685 312,681 327,694 334,708 336,730 339,730 351,718 336,729 336,716 331,700 312,680 308,684 308,671 315,670" style="fill:none;stroke:black;stroke-width:1" />
<polygon points="264,669 263,730 264,672 281,673 276,759 266,717 276,761 281,673" style="fill:none;stroke:black;stroke-width:1" />
<polygon points="264,670 265,669 266,670 265,671" style="fill:none;stroke:black;stroke-width:1" />
<polygon points="266,669 269,667 274,667 275,668 276,668 277,669 279,669 280,670 279,671 276,671 275,672 271,672 270,671 267,671 266,670" style="fill:none;stroke:black;stroke-width:1" />
<polygon points="308,665 310,668 351,668 352,716 374,709 372,666" style="fill:none;stroke:black;stroke-width:1" />
<polygon points="373,670 374,708 353,716 352,707 355,707 355,713 355,672 357,670" style="fill:none;stroke:black;stroke-width:1" />
<polygon points="308,666 370,665 374,669 356,670 354,706 352,668" style="fill:none;stroke:black;stroke-width:1" />
<polygon points="1,658 0,663 3,657 18,659 34,655 31,669 47,697 59,706 47,696 31,668 35,655 18,659" style="fill:none;stroke:black;stroke-width:1" />
<polygon points="201,644 225,726 258,718 258,693 256,719 225,725" style="fill:none;stroke:black;stroke-width:1" />
<polygon points="800,638 796,640 800,638 826,666 826,671 816,686 780,705 817,686 826,671 825,664" style="fill:none;stroke:black;stroke-width:1" />
<polygon points="65,635 70,669 79,689 83,693 70,669" style="fill:none;stroke:black;stroke-width:1" />
<polygon points="63,635 59,651 60,673 56,641 52,645 52,671 61,690 52,671 52,646 56,642 56,661 61,673 59,651" style="fill:none;stroke:black;stroke-width:1" />
<polygon points="198,633 198,635 199,636 199,639 200,640 200,642 200,640 199,639 199,636 198,635" style="fill:none;stroke:black;stroke-width:1" />
<polygon points="167,632 151,671 170,644 147,703 170,644 168,641 151,670" style="fill:none;stroke:black;stroke-width:1" />
<polygon points="165,632 165,634 154,652 149,664 149,662 160,644" style="fill:none;stroke:black;stroke-width:1" />
<polygon points="631,628 603,629 605,734 635,727 635,713 631,731 603,731 603,630 632,630 633,677" style="fill:none;stroke:black;stroke-width:1" />
<polygon points="236,628 254,690 257,691 258,630 256,628" style="fill:none;stroke:black;stroke-width:1" />
<polygon points="236,628 252,628 255,632 255,641 256,632 253,629 258,630 258,689 256,691 251,683" style="fill:none;stroke:black;stroke-width:1" />
<polygon points="256,649 255,650 255,657 255,650" style="fill:none;stroke:black;stroke-width:1" />
<polygon points="315,637 325,661 558,662 326,661 317,632 591,627 599,665 568,667 599,666 591,627" style="fill:none;stroke:black;stroke-width:1" />
<polygon points="139,627 74,711 45,717 0,698 45,717 75,711 138,627 79,719 43,722 0,703 43,722 80,719" style="fill:none;stroke:black;stroke-width:1" />
<polygon points="798,622 793,623 777,647 745,719 749,718 774,677 800,627" style="fill:none;stroke:black;stroke-width:1" />
<polygon points="797,622 800,627 773,678 746,719 773,655" style="fill:none;stroke:black;stroke-width:1" />
<polygon points="773,673 772,674 772,675 771,676 771,677 770,678 771,677 771,676 772,675 772,674" style="fill:none;stroke:black;stroke-width:1" />
<polygon points="80,613 79,613 79,622 78,623 78,629 77,630 77,635 77,630 78,629 78,623 79,622 79,614" style="fill:none;stroke:black;stroke-width:1" />
<polygon points="789,611 790,618 740,714 735,739 747,722 734,737 742,721 738,721 789,621" style="fill:none;stroke:black;stroke-width:1" />
<polygon points="191,609 192,610 192,613 193,614 193,617 194,618 194,621 196,625 196,628 197,629 197,631 197,629 196,628 196,625 195,624 195,622 194,621 194,618 193,617 193,614 192,613 192,610" style="fill:none;stroke:black;stroke-width:1" />
<polygon points="79,609 104,627 111,647 104,626 77,609 73,658 85,694 69,708 85,695 73,658" style="fill:none;stroke:black;stroke-width:1" />
<polygon points="228,597 230,624 631,622 630,598" style="fill:none;stroke:black;stroke-width:1" />
<polygon points="228,598 311,622 311,597 613,598 536,619 629,598 631,622 392,601 421,620 346,621 504,624 231,624" style="fill:none;stroke:black;stroke-width:1" />
<polygon points="570,620 602,621 608,623 608,622 603,622 602,621" style="fill:none;stroke:black;stroke-width:1" />
<polygon points="352,617 367,618 353,617 353,615 392,614 352,615" style="fill:none;stroke:black;stroke-width:1" />
<polygon points="353,610 392,612 354,612 355,609 386,609 357,606 364,601 356,606 385,609" style="fill:none;stroke:black;stroke-width:1" />
<polygon points="430,600 450,602 490,601 450,602" style="fill:none;stroke:black;stroke-width:1" />
<polygon points="63,590 68,600 67,638 68,600" style="fill:none;stroke:black;stroke-width:1" />
<polygon points="61,590 63,628 59,635 57,619 43,667 59,699 44,674 48,647 51,681 70,702 46,664 57,620 59,636 63,628" style="fill:none;stroke:black;stroke-width:1" />
<polygon points="323,587 324,588 324,589 325,590 325,592 324,593 325,593 325,590 324,589 324,587" style="fill:none;stroke:black;stroke-width:1" />
<polygon points="291,579 296,586 297,589 295,584 297,582 299,584 300,590 300,587 301,586 300,587 299,586 299,583 298,582 303,580 298,582 294,579 292,580" style="fill:none;stroke:black;stroke-width:1" />
<polygon points="292,580 293,579 294,579 297,582 295,584 294,583 294,582" style="fill:none;stroke:black;stroke-width:1" />
<polygon points="355,576 349,580 323,580 320,578 313,577 320,578 323,580 349,580 354,578" style="fill:none;stroke:black;stroke-width:1" />
<polygon points="439,575 441,580 461,590 464,590 466,588 469,589 477,588 475,589 466,588 462,590 442,580" style="fill:none;stroke:black;stroke-width:1" />
<polygon points="458,573 462,577 470,580 472,582 471,585 473,586 477,586 473,586 471,584 472,583 472,581 471,580 464,578 459,573" style="fill:none;stroke:black;stroke-width:1" />
<polygon points="2,574 34,578 51,599 52,618 39,655 39,672 46,689 66,706 46,688 39,672 39,655 52,618 50,596 29,575" style="fill:none;stroke:black;stroke-width:1" />
<polygon points="511,568 509,570 506,570 509,570 510,569 511,569" style="fill:none;stroke:black;stroke-width:1" />
<polygon points="439,568 440,573 447,576 439,571 440,568 449,575 467,583 467,585 464,585 449,577 464,585 469,584" style="fill:none;stroke:black;stroke-width:1" />
<polygon points="544,569 518,566 534,566 544,570 543,576 534,586 479,590 534,586 543,577" style="fill:none;stroke:black;stroke-width:1" />
<polygon points="509,565 508,565 508,566 507,567 505,567 502,570 503,570 506,567 508,567 508,566" style="fill:none;stroke:black;stroke-width:1" />
<polygon points="502,564 501,564 500,565 499,565 497,567 496,567 495,568 493,568 492,569 491,569 492,569 493,568 495,568 496,567 498,567 500,565 501,565" style="fill:none;stroke:black;stroke-width:1" />
<polygon points="0,559 5,559 6,560 5,561 0,561 6,561 6,559" style="fill:none;stroke:black;stroke-width:1" />
<polygon points="792,558 788,559 792,559 788,609 765,653 739,678 715,690 741,677 764,655 788,609" style="fill:none;stroke:black;stroke-width:1" />
<polygon points="576,554 576,558 580,558 581,559 584,559 581,559 580,558 577,558 576,557" style="fill:none;stroke:black;stroke-width:1" />
<polygon points="161,552 161,553 162,554 162,556 163,557 163,558 164,559 164,560 164,559 163,558 163,557 162,556 162,554 161,553" style="fill:none;stroke:black;stroke-width:1" />
<polygon points="0,554 31,553 56,564 72,582 77,605 109,627 114,651 93,684 81,677 76,653 90,687 114,651 109,626 77,604 72,581 51,560" style="fill:none;stroke:black;stroke-width:1" />
<polygon points="51,551 49,555 74,579 81,602 102,615 121,640 131,627 131,613 131,627 119,640 113,625 81,601 76,582 49,554" style="fill:none;stroke:black;stroke-width:1" />
<polygon points="857,550 849,554 840,564 836,583 840,598 858,627 840,598 836,583 840,565" style="fill:none;stroke:black;stroke-width:1" />
<polygon points="103,550 99,559 124,584 126,572 122,560 114,554 122,560 126,572 126,579 122,584 99,558" style="fill:none;stroke:black;stroke-width:1" />
<polygon points="792,544 766,574 734,640 766,575" style="fill:none;stroke:black;stroke-width:1" />
<polygon points="858,543 834,556 826,575 827,593 849,639 850,649 848,636 827,593 826,575 833,558" style="fill:none;stroke:black;stroke-width:1" />
<polygon points="693,543 684,549 680,554 678,553 679,548 684,543 687,542 681,545 679,548 678,554 682,553 685,549 692,545" style="fill:none;stroke:black;stroke-width:1" />
<polygon points="858,540 835,550 823,574 825,596 848,650 825,596 823,574 836,550" style="fill:none;stroke:black;stroke-width:1" />
<polygon points="858,537 821,563 845,673 794,757 853,674 832,576 858,547 832,576 856,648 840,692 845,656 818,574" style="fill:none;stroke:black;stroke-width:1" />
<polygon points="0,531 4,531 5,532 4,533 0,533 5,533 5,532 4,531" style="fill:none;stroke:black;stroke-width:1" />
<polygon points="110,530 110,532 122,532 136,549 141,546 140,540 134,534 121,529" style="fill:none;stroke:black;stroke-width:1" />
<polygon points="110,531 112,529 121,529 133,534 140,541 141,545 136,548 126,537 123,532 111,532" style="fill:none;stroke:black;stroke-width:1" />
<polygon points="858,528 826,541 810,568 837,662 812,706 841,669 815,564 858,532 833,540 813,572 841,659 824,698 839,662 810,568 827,541" style="fill:none;stroke:black;stroke-width:1" />
<polygon points="776,532 761,526 776,533 750,562 735,547 695,531 671,536 660,556 638,556 662,555 675,534 672,545 702,538 672,545 679,535 706,537 677,536 695,531 751,562" style="fill:none;stroke:black;stroke-width:1" />
<polygon points="602,525 622,537 626,582 624,584 594,562 586,560 625,584 622,536" style="fill:none;stroke:black;stroke-width:1" />
<polygon points="229,589 629,594 557,560 478,575 580,561 627,595 299,594 271,545 296,524 303,574 283,577 358,583 307,580 287,524" style="fill:none;stroke:black;stroke-width:1" />
<polygon points="298,592 297,594 231,595 229,589 233,581 255,565 272,561 284,583" style="fill:none;stroke:black;stroke-width:1" />
<polygon points="600,524 586,524 575,532 575,552 578,537 585,532 584,544 585,531 578,537 576,552 573,545 575,533 586,524 598,523 589,531 586,544 589,532" style="fill:none;stroke:black;stroke-width:1" />
<polygon points="677,522 669,523 663,526 656,533 655,538 658,537 665,530 677,525" style="fill:none;stroke:black;stroke-width:1" />
<polygon points="677,523 675,526 671,527 666,530 664,530 656,538 655,537 656,534 667,524 672,523 673,522 676,522" style="fill:none;stroke:black;stroke-width:1" />
<polygon points="858,522 816,529 796,554 794,606 832,652 830,679 754,726 696,805 755,726 830,680 832,652 794,606 796,554 817,529" style="fill:none;stroke:black;stroke-width:1" />
<polygon points="689,521 720,530 732,540 704,527 689,527 709,531 735,545 689,526 704,527 732,540 735,538" style="fill:none;stroke:black;stroke-width:1" />
<polygon points="0,521 25,531 21,532 2,528 31,534 27,533 31,532 9,526" style="fill:none;stroke:black;stroke-width:1" />
<polygon points="24,532 25,531 27,531 28,532 27,533 25,533" style="fill:none;stroke:black;stroke-width:1" />
<polygon points="833,519 836,519 837,518 858,518 837,518 836,519" style="fill:none;stroke:black;stroke-width:1" />
<polygon points="0,517 94,560 127,606 86,562 0,539 85,562 129,610 95,560" style="fill:none;stroke:black;stroke-width:1" />
<polygon points="466,515 496,515 497,516 496,515" style="fill:none;stroke:black;stroke-width:1" />
<polygon points="663,520 698,515 740,538 702,520 664,523 702,520 741,538 702,514" style="fill:none;stroke:black;stroke-width:1" />
<polygon points="167,518 208,519 228,534 234,573 221,610 191,605 172,535 199,526 172,532 192,607 223,608 237,641 223,608 234,574 228,533 208,519 168,520 202,514" style="fill:none;stroke:black;stroke-width:1" />
<polygon points="326,520 327,543 352,544 355,574 358,514 354,514 358,515 354,573 352,543 328,543" style="fill:none;stroke:black;stroke-width:1" />
<polygon points="326,514 326,518 343,518 344,517 352,517 353,516 352,514 338,514 337,513 328,513" style="fill:none;stroke:black;stroke-width:1" />
<polygon points="326,517 326,515 328,513 351,514 352,515 351,517 344,517 343,518 327,518" style="fill:none;stroke:black;stroke-width:1" />
<polygon points="304,512 304,513 314,513 315,514 319,514 320,515 320,514 315,514 314,513 305,513" style="fill:none;stroke:black;stroke-width:1" />
<polygon points="221,512 239,534 243,548 240,552 243,548 239,534 222,512 236,524 245,539 249,531 256,544 267,549 256,543 250,531 246,539 236,523" style="fill:none;stroke:black;stroke-width:1" />
<polygon points="133,510 58,532 175,622 105,791 178,632 59,532 122,519 174,598 158,540 219,730" style="fill:none;stroke:black;stroke-width:1" />
<polygon points="108,547 114,545 121,547 131,559 144,600 143,608 124,557 116,551 107,550" style="fill:none;stroke:black;stroke-width:1" />
<polygon points="65,529 122,510 161,525 218,726 158,539 122,519" style="fill:none;stroke:black;stroke-width:1" />
<polygon points="458,500 456,566 489,569 489,559 498,555 463,556 488,558 488,569 456,566 457,504 497,504 457,502 499,500" style="fill:none;stroke:black;stroke-width:1" />
<polygon points="463,557 464,556 474,556 475,555 497,555 498,556 497,558 490,558 489,559 488,558 464,558" style="fill:none;stroke:black;stroke-width:1" />
<polygon points="776,526 695,496 634,519 640,724 690,718 703,543 689,583 636,590 690,585 689,646 637,655 638,539 679,504 776,528 670,506 633,590 634,520 695,496" style="fill:none;stroke:black;stroke-width:1" />
<polygon points="688,647 690,718 641,724 637,717 636,656 669,653" style="fill:none;stroke:black;stroke-width:1" />
<polygon points="408,495 410,507 410,537 413,538 410,536 410,507" style="fill:none;stroke:black;stroke-width:1" />
<polygon points="638,507 631,500 608,492 577,492 561,497 538,520 534,553 572,557 570,538 580,523 607,518 625,525" style="fill:none;stroke:black;stroke-width:1" />
<polygon points="638,508 582,505 541,541 568,503 538,554 577,507 633,515 579,523 571,557 534,553 540,517 566,495 608,492 632,504 585,501" style="fill:none;stroke:black;stroke-width:1" />
<polygon points="567,533 565,532 562,535 556,545 551,544 545,547 543,546 546,547 551,544 557,545 565,533 566,536 564,541 565,545 567,546 564,541" style="fill:none;stroke:black;stroke-width:1" />
<polygon points="565,533 566,532 567,533 566,534" style="fill:none;stroke:black;stroke-width:1" />
<polygon points="159,512 165,523 205,523 226,535 205,523 168,524 159,513 203,492 232,492 256,513 269,555 240,569 229,528 203,517 229,529 239,569 267,558 256,512 232,492 203,492" style="fill:none;stroke:black;stroke-width:1" />
<polygon points="858,489 765,551 698,717 795,542 858,503 795,541 745,628 774,567 699,717 765,552" style="fill:none;stroke:black;stroke-width:1" />
<polygon points="858,483 853,488 824,504 852,489" style="fill:none;stroke:black;stroke-width:1" />
<polygon points="347,483 347,487 346,488 346,496 344,498 338,498 335,496 338,498 345,498 346,496 346,488 347,487" style="fill:none;stroke:black;stroke-width:1" />
<polygon points="362,479 358,510 304,510 359,510 362,480 356,593" style="fill:none;stroke:black;stroke-width:1" />
<polygon points="369,480 368,576 372,582 401,582 405,577 405,479" style="fill:none;stroke:black;stroke-width:1" />
<polygon points="402,478 405,480 405,577 401,582 372,582 368,576 369,481" style="fill:none;stroke:black;stroke-width:1" />
<polygon points="373,482 372,486 384,487 372,489 372,576 400,578 402,483" style="fill:none;stroke:black;stroke-width:1" />
<polygon points="374,482 402,484 399,578 372,575 372,490 400,487 373,486" style="fill:none;stroke:black;stroke-width:1" />
<polygon points="680,484 688,477 681,482 681,490 686,492 698,492 713,495 698,492 686,492 680,488" style="fill:none;stroke:black;stroke-width:1" />
<polygon points="645,495 642,476 645,494 641,498 616,489 597,486 623,491 637,498 642,498" style="fill:none;stroke:black;stroke-width:1" />
<polygon points="311,476 311,481 312,482 316,496 317,497 319,497 321,495 321,484 322,483 322,478 318,476" style="fill:none;stroke:black;stroke-width:1" />
<polygon points="312,476 318,476 322,479 322,483 321,484 321,495 319,497 318,497 315,493 315,491 311,481 311,477" style="fill:none;stroke:black;stroke-width:1" />
<polygon points="415,471 415,577 407,578 415,579 415,472 418,587 371,591 368,582 371,591 417,590" style="fill:none;stroke:black;stroke-width:1" />
<polygon points="411,471 409,473 409,479 407,481 408,481 409,480 409,474 411,472" style="fill:none;stroke:black;stroke-width:1" />
<polygon points="297,467 295,470 297,481 301,490 305,496 307,496 306,470 302,467" style="fill:none;stroke:black;stroke-width:1" />
<polygon points="298,467 302,467 306,471 306,484 307,485 307,495 306,496 299,486 296,478 295,470" style="fill:none;stroke:black;stroke-width:1" />
<polygon points="703,465 699,469 704,465 705,466 704,477 712,493 704,476 705,465" style="fill:none;stroke:black;stroke-width:1" />
<polygon points="408,462 408,463 410,465 410,466 411,467 411,469 411,467 410,466 410,464" style="fill:none;stroke:black;stroke-width:1" />
<polygon points="701,460 699,460 693,464 689,468 688,468 681,475 681,477 683,477 687,475 696,467 697,467 700,464" style="fill:none;stroke:black;stroke-width:1" />
<polygon points="701,461 701,462 690,472 689,472 683,477 681,476 694,464 695,464 700,460" style="fill:none;stroke:black;stroke-width:1" />
<polygon points="408,460 409,460 412,463 412,464 413,465 413,466 414,467 414,468 414,466 413,465 413,464 411,462 411,461 410,460" style="fill:none;stroke:black;stroke-width:1" />
<polygon points="283,457 283,458 282,459 282,463 281,464 281,467 280,468 281,467 281,464 282,463 282,459 283,458" style="fill:none;stroke:black;stroke-width:1" />
<polygon points="224,457 222,486 240,492 257,506 262,499 256,506 241,492 222,485" style="fill:none;stroke:black;stroke-width:1" />
<polygon points="638,455 638,463 639,464 639,468 640,469 641,474 641,472 640,471 640,469 639,468 639,464 638,463" style="fill:none;stroke:black;stroke-width:1" />
<polygon points="425,455 425,457 427,458 445,460 440,460 439,459 440,458 444,458 440,458 439,459 427,458 425,456 427,455" style="fill:none;stroke:black;stroke-width:1" />
<polygon points="0,453 3,458 15,507 3,458" style="fill:none;stroke:black;stroke-width:1" />
<polygon points="545,451 545,461 546,462 546,471 546,462 545,461" style="fill:none;stroke:black;stroke-width:1" />
<polygon points="195,447 183,469 163,487 139,496 111,498 106,503 141,501 166,492 188,470" style="fill:none;stroke:black;stroke-width:1" />
<polygon points="195,448 184,475 165,492 141,501 106,502 111,498 139,496 164,487 183,470 191,450" style="fill:none;stroke:black;stroke-width:1" />
<polygon points="254,443 264,453 262,454 262,462 253,482 255,482 259,478 265,465 265,454" style="fill:none;stroke:black;stroke-width:1" />
<polygon points="264,453 265,454 265,465 259,477 254,482 253,480 255,478 260,468 262,462 262,455" style="fill:none;stroke:black;stroke-width:1" />
<polygon points="0,443 0,446 1,447 1,451 1,447 0,446" style="fill:none;stroke:black;stroke-width:1" />
<polygon points="301,501 322,574 301,501 351,502 368,447 417,459 425,546 449,476 486,464 505,559 467,525 501,497 452,496 452,565 513,572 452,565 453,496 501,498 459,514 462,554 462,516 500,502 467,526 510,562 489,465 449,475 443,546 396,441 350,502" style="fill:none;stroke:black;stroke-width:1" />
<polygon points="252,440 247,463 237,479 247,472 254,457 255,462 243,482 259,464 243,481 254,466 254,455 250,467 237,478 247,463" style="fill:none;stroke:black;stroke-width:1" />
<polygon points="254,456 255,455 256,456 256,457 255,458 254,457" style="fill:none;stroke:black;stroke-width:1" />
<polygon points="503,436 523,467 532,508 539,508 549,496 547,474 549,496 538,508 533,508 521,462" style="fill:none;stroke:black;stroke-width:1" />
<polygon points="642,434 637,453 618,462 612,462 602,456 609,461 618,462 634,455 638,452 638,445" style="fill:none;stroke:black;stroke-width:1" />
<polygon points="300,430 300,433 301,434 314,434 315,433 315,431 313,429 307,429 306,430 304,430 303,429 301,429" style="fill:none;stroke:black;stroke-width:1" />
<polygon points="300,431 302,429 303,429 304,430 306,430 307,429 312,429 315,432 313,434 302,434 300,432" style="fill:none;stroke:black;stroke-width:1" />
<polygon points="85,425 97,465 115,493 158,485 188,452 159,484 115,493 85,426 93,441 94,426 103,450 93,424 94,441" style="fill:none;stroke:black;stroke-width:1" />
<polygon points="465,422 473,432 476,439 476,452 474,456 476,452 476,439 474,433 471,429 472,427 471,429" style="fill:none;stroke:black;stroke-width:1" />
<polygon points="300,422 300,426 301,426 302,427 303,427 304,426 317,426 317,423 310,423 309,422" style="fill:none;stroke:black;stroke-width:1" />
<polygon points="300,423 301,422 309,422 310,423 316,423 317,424 317,425 316,426 304,426 303,427 302,427 300,425" style="fill:none;stroke:black;stroke-width:1" />
<polygon points="0,421 19,512 18,519 0,514 19,519" style="fill:none;stroke:black;stroke-width:1" />
<polygon points="602,420 604,424 608,425 632,422 641,422 645,424 641,422 632,422 608,425 605,424" style="fill:none;stroke:black;stroke-width:1" />
<polygon points="685,417 677,426 690,423 662,441 683,427 664,442 686,428 689,430 684,440 688,444 668,462 688,445 684,441 689,429 685,427 691,422 677,425" style="fill:none;stroke:black;stroke-width:1" />
<polygon points="260,416 251,423 252,435 269,456 272,444 275,451 270,474 261,493 263,497 276,469 279,436 274,424" style="fill:none;stroke:black;stroke-width:1" />
<polygon points="260,416 274,425 279,436 276,469 262,497 275,451 272,443 270,456 251,432 251,423" style="fill:none;stroke:black;stroke-width:1" />
<polygon points="708,413 710,450 687,456 689,448 670,461 689,448 686,456 699,454 681,468 670,491 656,495 642,467 654,494 671,491 681,469 710,451" style="fill:none;stroke:black;stroke-width:1" />
<polygon points="497,409 506,420 511,424 513,424 513,422 499,408 513,422 512,424" style="fill:none;stroke:black;stroke-width:1" />
<polygon points="215,408 214,442 207,466 203,469 201,437 203,470 207,467 213,448" style="fill:none;stroke:black;stroke-width:1" />
<polygon points="462,406 512,454 524,500 511,504 494,464 459,462 442,482 438,538 426,477 437,538 442,482 462,461 493,464 511,505 524,501 512,453" style="fill:none;stroke:black;stroke-width:1" />
<polygon points="324,405 323,406 322,406 321,405 320,405 321,405 323,407 323,408 322,409 324,407 323,406" style="fill:none;stroke:black;stroke-width:1" />
<polygon points="98,403 110,446 97,415 95,420 105,450 95,414 111,450 98,404 115,443" style="fill:none;stroke:black;stroke-width:1" />
<polygon points="110,446 111,447 111,449 110,450 109,449 109,447" style="fill:none;stroke:black;stroke-width:1" />
<polygon points="261,401 261,403 269,404 318,404 317,401 279,399" style="fill:none;stroke:black;stroke-width:1" />
<polygon points="261,402 263,400 279,399 316,401 318,403 269,404" style="fill:none;stroke:black;stroke-width:1" />
<polygon points="105,399 117,446 106,400 123,444 117,411 134,452 118,411 126,447" style="fill:none;stroke:black;stroke-width:1" />
<polygon points="494,396 508,413 530,432 536,435 509,413" style="fill:none;stroke:black;stroke-width:1" />
<polygon points="254,395 255,397 320,396 319,394 301,392 269,392" style="fill:none;stroke:black;stroke-width:1" />
<polygon points="255,395 269,392 301,392 318,394 319,396 256,397" style="fill:none;stroke:black;stroke-width:1" />
<polygon points="142,390 135,396 124,398 127,404 120,404 121,407 130,409 122,412 135,450 122,412 128,412 130,408 120,405 128,404 124,399 138,395" style="fill:none;stroke:black;stroke-width:1" />
<polygon points="16,389 16,396 17,397 17,401 18,402 19,411 20,412 20,420 20,412 19,411 19,406 18,405 17,397 16,396" style="fill:none;stroke:black;stroke-width:1" />
<polygon points="729,388 729,393 731,397 736,402 737,402 741,405 743,405 741,405 738,402 737,402 730,395 730,393 729,392" style="fill:none;stroke:black;stroke-width:1" />
<polygon points="245,388 244,388 242,391 243,398 244,397 247,397 249,395 251,395 252,394 251,395 249,395 246,397 244,397 242,394 242,391" style="fill:none;stroke:black;stroke-width:1" />
<polygon points="549,387 558,493 590,486 589,394" style="fill:none;stroke:black;stroke-width:1" />
<polygon points="588,425 591,484 559,493 552,431 564,433" style="fill:none;stroke:black;stroke-width:1" />
<polygon points="549,388 588,393 589,424 569,432 554,431 549,390 585,394" style="fill:none;stroke:black;stroke-width:1" />
<polygon points="339,390 247,389 339,391 326,474 286,464 279,429 323,417 273,412 320,410 251,417 278,424 299,493 267,524 279,473 266,524 296,517 285,464 327,474" style="fill:none;stroke:black;stroke-width:1" />
<polygon points="281,471 282,470 289,470 291,472 291,475 290,476 287,476 285,474 284,474" style="fill:none;stroke:black;stroke-width:1" />
<polygon points="290,415 291,414 294,414 295,415 306,415 307,416 319,416 323,418 322,419 301,419 300,418 292,419 290,417" style="fill:none;stroke:black;stroke-width:1" />
<polygon points="197,383 200,405 199,419 193,442 189,448 192,445 199,419 200,405" style="fill:none;stroke:black;stroke-width:1" />
<polygon points="14,380 12,380 12,383 11,384 10,383 7,383 5,384 3,387 3,389 3,387 7,383 12,384 12,381 13,380 16,385 16,387 16,385 14,382" style="fill:none;stroke:black;stroke-width:1" />
<polygon points="72,379 74,412 83,454 94,481 105,493 84,441" style="fill:none;stroke:black;stroke-width:1" />
<polygon points="74,388 84,441 104,493 94,480 83,454 74,412" style="fill:none;stroke:black;stroke-width:1" />
<polygon points="73,379 74,380 74,388 73,389 72,388 72,380" style="fill:none;stroke:black;stroke-width:1" />
<polygon points="797,378 805,492 814,510 805,492 807,469 823,448 847,448 845,468 829,491 847,472 850,458 842,479 824,491 844,470 849,444 833,408" style="fill:none;stroke:black;stroke-width:1" />
<polygon points="799,383 833,409 844,427 849,444 836,452 822,448 812,469 807,466" style="fill:none;stroke:black;stroke-width:1" />
<polygon points="797,379 799,378 811,387 830,406 828,407 810,389 800,383" style="fill:none;stroke:black;stroke-width:1" />
<polygon points="677,378 670,378 657,382 650,388 650,391 654,390 657,387 665,383 675,381 677,380" style="fill:none;stroke:black;stroke-width:1" />
<polygon points="677,379 675,381 660,385 651,391 650,390 656,383 662,380 669,379 670,378 676,378" style="fill:none;stroke:black;stroke-width:1" />
<polygon points="152,377 152,378 151,379 152,378" style="fill:none;stroke:black;stroke-width:1" />
<polygon points="8,372 0,380 15,375 35,413 23,413 18,389 39,458 13,457 3,397 10,419 7,393 15,408 7,392 10,418 1,391 7,431 0,406 22,514 39,524 35,413" style="fill:none;stroke:black;stroke-width:1" />
<polygon points="13,457 33,456 39,460 41,521 38,524 27,521 22,514" style="fill:none;stroke:black;stroke-width:1" />
<polygon points="3,392 4,393 4,396 3,397 2,396 2,393" style="fill:none;stroke:black;stroke-width:1" />
<polygon points="189,371 189,372 190,373 190,375 191,375 190,374 190,373 189,372" style="fill:none;stroke:black;stroke-width:1" />
<polygon points="643,438 641,465 662,414 709,400 741,444 695,409 655,432 644,462 658,430 706,409 799,493 797,454 722,369 797,455 796,496 709,400 673,406" style="fill:none;stroke:black;stroke-width:1" />
<polygon points="741,444 742,443 744,445 744,446 743,447 741,445" style="fill:none;stroke:black;stroke-width:1" />
<polygon points="440,368 463,417 456,436 440,437 454,442 430,447 455,447 430,455 455,448 432,445 455,442 440,438 457,436 463,418 455,391 503,433 483,392 501,433 453,389 471,369 451,383" style="fill:none;stroke:black;stroke-width:1" />
<polygon points="440,453 441,452 445,452 446,453 445,454 441,454" style="fill:none;stroke:black;stroke-width:1" />
<polygon points="430,453 431,452 432,452 433,453 440,453 441,454 440,455 431,455 430,454" style="fill:none;stroke:black;stroke-width:1" />
<polygon points="471,360 471,364 472,365 472,367 472,365 471,364" style="fill:none;stroke:black;stroke-width:1" />
<polygon points="254,368 283,364 312,364 321,362 322,360 268,361 255,364" style="fill:none;stroke:black;stroke-width:1" />
<polygon points="254,367 256,364 268,361 321,361 312,364 283,364" style="fill:none;stroke:black;stroke-width:1" />
<polygon points="291,357 292,356 295,356 292,356 291,357 291,358 295,358 292,358" style="fill:none;stroke:black;stroke-width:1" />
<polygon points="525,354 525,355 526,356 526,357 527,358 526,357 526,356 525,355" style="fill:none;stroke:black;stroke-width:1" />
<polygon points="146,353 144,371 137,381 125,382 118,377 124,382 138,381 144,371" style="fill:none;stroke:black;stroke-width:1" />
<polygon points="329,352 299,355 328,352 328,355 322,357 304,358 322,357 329,355" style="fill:none;stroke:black;stroke-width:1" />
<polygon points="338,349 327,348 254,362 327,348" style="fill:none;stroke:black;stroke-width:1" />
<polygon points="76,345 13,365 38,410 47,527 69,522 65,394" style="fill:none;stroke:black;stroke-width:1" />
<polygon points="75,345 65,394 69,521 48,527 39,419 63,417 39,417 13,366" style="fill:none;stroke:black;stroke-width:1" />
<polygon points="46,470 48,470 49,469 53,469 54,468 61,468 62,469 64,469 62,469 61,468 54,468 53,469 49,469 48,470" style="fill:none;stroke:black;stroke-width:1" />
<polygon points="64,359 61,358 25,368 25,371 29,371 63,362" style="fill:none;stroke:black;stroke-width:1" />
<polygon points="64,360 62,362 29,371 25,370 27,367 61,358" style="fill:none;stroke:black;stroke-width:1" />
<polygon points="338,344 250,361 226,462 246,445 248,427 244,452 227,462 225,438 250,362 335,343 339,387 246,386 258,375 238,386 255,376 246,386 340,387" style="fill:none;stroke:black;stroke-width:1" />
<polygon points="734,335 743,335 744,336 751,337 755,340 762,343 766,343 762,343 751,337 748,337 743,335" style="fill:none;stroke:black;stroke-width:1" />
<polygon points="526,331 549,381 589,387 590,348 587,343 559,335" style="fill:none;stroke:black;stroke-width:1" />
<polygon points="526,332 586,343 590,348 588,356 541,354 588,356 589,386 551,382" style="fill:none;stroke:black;stroke-width:1" />
<polygon points="536,344 568,348 587,347 568,348" style="fill:none;stroke:black;stroke-width:1" />
<polygon points="652,330 638,329 621,332 609,342 604,352 609,343 624,331 638,329" style="fill:none;stroke:black;stroke-width:1" />
<polygon points="501,324 510,356 514,356 516,351 521,353 522,352 520,353 516,350 516,353 512,357 509,354" style="fill:none;stroke:black;stroke-width:1" />
<polygon points="91,321 87,336 74,367 73,377 74,367 87,336" style="fill:none;stroke:black;stroke-width:1" />
<polygon points="598,336 596,483 600,387 690,356 603,356 597,483 594,347 629,315 709,345 709,394 643,432 696,395 763,431 708,396 708,344 718,369 731,338 720,369 734,337 640,315" style="fill:none;stroke:black;stroke-width:1" />
<polygon points="600,383 602,358 617,345 632,345 620,348 623,340 688,349 635,346 689,355 652,355 676,361 658,362 668,369 643,369 638,387 606,389" style="fill:none;stroke:black;stroke-width:1" />
<polygon points="134,315 134,318 135,319 135,321 136,322 136,324 137,325 137,327 138,328 138,330 139,331 139,333 140,335 139,333 139,331 138,330 138,328 137,327 137,325 136,324 136,322 135,321 135,319 134,318" style="fill:none;stroke:black;stroke-width:1" />
<polygon points="0,302 0,304 3,310 5,326 3,310 2,309 2,307 1,306" style="fill:none;stroke:black;stroke-width:1" />
<polygon points="493,299 507,361 494,299 492,327 507,374 491,352 509,387 491,352 507,375 492,327" style="fill:none;stroke:black;stroke-width:1" />
<polygon points="480,299 483,367 543,441 498,395 536,421 484,352 533,414 536,382 534,414 484,350 533,423 483,367" style="fill:none;stroke:black;stroke-width:1" />
<polygon points="715,298 715,303 737,320 767,332 764,327 733,309 721,298" style="fill:none;stroke:black;stroke-width:1" />
<polygon points="715,299 720,298 732,309 767,331 765,332 738,320 723,310 715,302" style="fill:none;stroke:black;stroke-width:1" />
<polygon points="143,294 156,352 154,372 156,352 144,294 174,319 188,369 174,318 161,303" style="fill:none;stroke:black;stroke-width:1" />
<polygon points="0,294 7,310 7,314 8,315 7,325 7,318 9,316 7,314 7,310 4,301 2,299" style="fill:none;stroke:black;stroke-width:1" />
<polygon points="465,292 428,296 437,379 427,410 404,427 376,407 374,419 376,407 404,427 426,412 437,379 429,301 462,301 468,342 462,300 428,297 463,291 468,321" style="fill:none;stroke:black;stroke-width:1" />
<polygon points="125,288 121,290 121,295 119,299 119,304 118,305 118,315 118,305 119,304 119,300 121,295 121,291" style="fill:none;stroke:black;stroke-width:1" />
<polygon points="701,282 701,288 706,298 712,306 713,306 714,305 713,306 706,297 703,290 701,288" style="fill:none;stroke:black;stroke-width:1" />
<polygon points="0,282 8,296 11,309 10,329 1,350 10,329 11,309 6,291" style="fill:none;stroke:black;stroke-width:1" />
<polygon points="0,277 10,292 14,308 12,335 1,354 12,335 14,308 10,292" style="fill:none;stroke:black;stroke-width:1" />
<polygon points="412,258 401,300 350,354 331,495 372,430 407,443 425,475 438,461 425,471 409,444 371,429 375,382 414,343 381,376 379,407 405,423 432,390" style="fill:none;stroke:black;stroke-width:1" />
<polygon points="411,258 434,374 384,380 423,339 380,387 432,377 430,397 390,421 378,384 415,343 388,362 334,488 347,410 369,418 348,407 355,362 412,277 355,362 332,495 348,360" style="fill:none;stroke:black;stroke-width:1" />
<polygon points="290,263 272,264 259,257 253,284 245,300 232,313 245,301 250,291 259,257 272,264" style="fill:none;stroke:black;stroke-width:1" />
<polygon points="486,256 476,305 475,349 482,380 497,407 482,380 475,349 476,305" style="fill:none;stroke:black;stroke-width:1" />
<polygon points="849,252 848,281 852,298 858,309 852,298 848,281" style="fill:none;stroke:black;stroke-width:1" />
<polygon points="488,251 488,252 487,253 487,254 487,253 488,252" style="fill:none;stroke:black;stroke-width:1" />
<polygon points="826,249 826,259 827,260 827,261 827,260 826,259" style="fill:none;stroke:black;stroke-width:1" />
<polygon points="647,246 648,269 655,290 666,301 686,307 667,301 656,291 649,274" style="fill:none;stroke:black;stroke-width:1" />
<polygon points="857,238 856,240 856,272 858,283 856,272 856,240" style="fill:none;stroke:black;stroke-width:1" />
<polygon points="507,237 507,310 537,374 551,477 544,380 512,313" style="fill:none;stroke:black;stroke-width:1" />
<polygon points="509,268 512,313 543,375 549,463 537,374 507,310" style="fill:none;stroke:black;stroke-width:1" />
<polygon points="856,236 852,248 851,274 853,286 858,296 853,286 851,274 852,248" style="fill:none;stroke:black;stroke-width:1" />
<polygon points="487,232 472,308 471,349 479,380 495,407 478,377 471,349 472,308" style="fill:none;stroke:black;stroke-width:1" />
<polygon points="827,231 823,258 820,241 818,261 813,254 810,270 813,255 816,262 818,261 820,242 823,259" style="fill:none;stroke:black;stroke-width:1" />
<polygon points="701,226 708,244 706,288 712,301 706,288 708,244" style="fill:none;stroke:black;stroke-width:1" />
<polygon points="839,225 838,226 838,227 836,229 836,231 836,229 838,227 838,226" style="fill:none;stroke:black;stroke-width:1" />
<polygon points="665,219 656,226 665,219 680,220 696,240 688,283 692,308 688,283 696,240 684,222" style="fill:none;stroke:black;stroke-width:1" />
<polygon points="132,218 122,255 149,367 133,387 111,369 114,290 113,375 133,387 149,367 125,264 153,364 127,391 108,370 112,289 113,383 139,389 153,364 122,255" style="fill:none;stroke:black;stroke-width:1" />
<polygon points="851,215 848,216 850,215 852,217 855,228 851,237 850,250 851,237 855,228 853,218" style="fill:none;stroke:black;stroke-width:1" />
<polygon points="856,212 855,213 855,214 856,215 856,217 857,218 857,220 858,221 858,222 858,220 857,219 857,218 856,217 856,215 855,214 857,212 858,212" style="fill:none;stroke:black;stroke-width:1" />
<polygon points="667,211 664,211 663,212 661,212 660,213 658,213 660,213 661,212 663,212 664,211" style="fill:none;stroke:black;stroke-width:1" />
<polygon points="669,209 691,218 701,232 698,289 705,307 785,350 705,306 698,289 700,229 686,214" style="fill:none;stroke:black;stroke-width:1" />
<polygon points="858,207 845,214 835,225 830,244 829,261 830,244 835,226 846,214" style="fill:none;stroke:black;stroke-width:1" />
<polygon points="477,206 487,220 488,229 487,220 478,208 480,207 490,217 493,228 496,226 491,214 494,215 503,235 493,213 489,211 492,212 496,226 494,228 488,213" style="fill:none;stroke:black;stroke-width:1" />
<polygon points="477,207 478,206 479,207 478,208" style="fill:none;stroke:black;stroke-width:1" />
<polygon points="674,209 683,210 691,214 696,219 699,219 699,217 693,211 684,205 699,218 698,219 686,211" style="fill:none;stroke:black;stroke-width:1" />
<polygon points="131,209 98,244 93,309 109,311 109,296 107,313 93,309 105,230 146,217 153,228 142,219 130,227 130,264 170,303 193,294 184,345 196,381 192,235 167,207" style="fill:none;stroke:black;stroke-width:1" />
<polygon points="195,293 188,331 188,347 195,372 194,377 185,351 184,329 189,304" style="fill:none;stroke:black;stroke-width:1" />
<polygon points="136,221 138,219 141,219 142,220 140,222 137,222" style="fill:none;stroke:black;stroke-width:1" />
<polygon points="131,209 166,207 191,233 197,279 184,303 160,297 132,269 128,233 143,220 158,233 164,294 139,273 130,246 137,271 164,294 165,267 147,217 116,220" style="fill:none;stroke:black;stroke-width:1" />
<polygon points="147,228 155,249 156,263 159,267 158,246 152,231 160,254 160,265 157,265 155,249" style="fill:none;stroke:black;stroke-width:1" />
<polygon points="149,214 158,220 169,243 172,292 168,295 166,243 149,216 166,243 170,296 169,243 158,219" style="fill:none;stroke:black;stroke-width:1" />
<polygon points="856,202 833,212 810,246 813,246 825,221 842,207 833,216 828,246 833,217" style="fill:none;stroke:black;stroke-width:1" />
<polygon points="843,207 844,206 845,206 846,207 845,208 844,208" style="fill:none;stroke:black;stroke-width:1" />
<polygon points="845,206 846,205 848,205 849,206 848,207 846,207" style="fill:none;stroke:black;stroke-width:1" />
<polygon points="848,205 849,204 850,204 851,205 850,206 849,206" style="fill:none;stroke:black;stroke-width:1" />
<polygon points="850,204 851,203 853,203 854,204 853,205 851,205" style="fill:none;stroke:black;stroke-width:1" />
<polygon points="477,201 477,203 478,203 479,204 481,204 481,203 479,201" style="fill:none;stroke:black;stroke-width:1" />
<polygon points="478,203 479,202 480,202 481,203 480,204 479,204" style="fill:none;stroke:black;stroke-width:1" />
<polygon points="477,202 478,201 479,202 478,203" style="fill:none;stroke:black;stroke-width:1" />
<polygon points="856,198 818,219 807,268 818,303 846,316 858,386 846,322 858,352 853,324 818,303 807,268 818,220" style="fill:none;stroke:black;stroke-width:1" />
<polygon points="483,199 449,195 422,215 415,259 425,286 450,285 480,258 478,217 450,221 472,209 486,224 472,209 451,219 448,285 431,288 415,259 422,216 446,196 469,194 496,212 505,235" style="fill:none;stroke:black;stroke-width:1" />
<polygon points="448,226 449,227 449,229 448,230 448,232 447,233 447,237 446,238 445,237 445,232 446,231 446,229 447,228 447,227" style="fill:none;stroke:black;stroke-width:1" />
<polygon points="470,212 478,218 483,227 482,252 467,274 448,285 442,282 444,238 446,243 449,227 464,212" style="fill:none;stroke:black;stroke-width:1" />
<polygon points="444,255 444,280 449,281 450,282 449,281 446,281 444,279" style="fill:none;stroke:black;stroke-width:1" />
<polygon points="641,204 651,322 717,332 647,280 685,218 698,307 858,458 698,306 686,218 654,300 682,206 647,312 654,213 650,295 717,331 648,318 628,226 686,194 715,225 654,207 631,276 692,204 858,411 702,203" style="fill:none;stroke:black;stroke-width:1" />
<polygon points="858,195 804,246 829,358 726,288 693,193 633,209 634,306 590,337 525,324 503,214 441,194 385,313 245,362 214,486 129,505 215,486 245,363 386,313 441,194 503,215 524,324 591,337 634,307 631,213 688,191 726,289 829,358 804,246" style="fill:none;stroke:black;stroke-width:1" />
<polygon points="752,122 752,124 762,130 781,136 808,137 816,135 816,133 793,134 776,131" style="fill:none;stroke:black;stroke-width:1" />
<polygon points="752,123 755,122 770,129 786,133 816,134 808,137 786,137 765,131" style="fill:none;stroke:black;stroke-width:1" />
<polygon points="858,119 857,119 848,128 856,120 857,120" style="fill:none;stroke:black;stroke-width:1" />
<polygon points="553,107 546,109 539,115 535,125 537,139 543,146 552,150 560,150 566,148 574,141 577,125 569,111 563,108" style="fill:none;stroke:black;stroke-width:1" />
<polygon points="553,107 563,108 568,111 577,125 574,140 567,147 560,150 552,150 545,147 539,141 535,132 535,125 539,116 547,109" style="fill:none;stroke:black;stroke-width:1" />
<polygon points="88,103 91,109 90,115 85,121 71,130 76,139 71,131 82,124 90,116 91,109" style="fill:none;stroke:black;stroke-width:1" />
<polygon points="233,97 277,230 233,147 291,261 238,106 295,274 216,405 295,274" style="fill:none;stroke:black;stroke-width:1" />
<polygon points="273,220 274,219 275,220 275,221 274,222 273,221" style="fill:none;stroke:black;stroke-width:1" />
<polygon points="228,97 234,139 246,168 234,139" style="fill:none;stroke:black;stroke-width:1" />
<polygon points="226,94 222,132 247,193 221,142 217,107 224,152 255,205 228,143 223,103 228,143 256,202 223,136" style="fill:none;stroke:black;stroke-width:1" />
<polygon points="71,93 78,93 87,101 78,93 67,94 59,99 56,110 59,121 75,141 59,120 56,110 59,104 60,117 68,125 85,118 88,112 86,103" style="fill:none;stroke:black;stroke-width:1" />
<polygon points="77,95 84,101 88,107 88,112 85,117 79,122 73,125 68,125 61,118 59,114 59,104 64,98 71,95" style="fill:none;stroke:black;stroke-width:1" />
<polygon points="71,95 70,96 68,96 67,97 64,98 60,102 60,103 59,104 58,103 58,101 63,96 64,96 67,94 70,94" style="fill:none;stroke:black;stroke-width:1" />
<polygon points="217,88 219,149 204,137 253,272 222,309 197,299 233,305 196,345 228,311 200,345 197,446 198,356 253,272 204,137 219,150" style="fill:none;stroke:black;stroke-width:1" />
<polygon points="229,312 230,313 209,334 204,344 202,353 200,354 200,345 206,333 220,318" style="fill:none;stroke:black;stroke-width:1" />
<polygon points="348,86 344,113 361,136 390,139 412,123 417,111 415,89 417,111 403,132 385,140 362,136 344,113" style="fill:none;stroke:black;stroke-width:1" />
<polygon points="214,84 240,291 207,303 187,219 133,203 84,332 0,373 84,333 133,203 187,220 206,303 240,292 215,84 298,264 219,445 298,264" style="fill:none;stroke:black;stroke-width:1" />
<polygon points="0,221 65,193 150,117 127,114 64,68 36,79 0,68 27,79 64,68 148,121 63,194" style="fill:none;stroke:black;stroke-width:1" />
<polygon points="359,73 362,75 373,70 392,71 373,70 360,75 373,67 389,68 401,73 413,85 399,71 373,67" style="fill:none;stroke:black;stroke-width:1" />
<polygon points="398,73 399,72 400,73 399,74" style="fill:none;stroke:black;stroke-width:1" />
<polygon points="74,65 116,100 149,114 117,100" style="fill:none;stroke:black;stroke-width:1" />
<polygon points="494,54 523,68 491,62 529,76 491,61 523,69 495,56 498,54 525,63" style="fill:none;stroke:black;stroke-width:1" />
<polygon points="0,52 10,61 22,66 37,67 44,65 37,67 22,66 12,62" style="fill:none;stroke:black;stroke-width:1" />
<polygon points="127,48 123,52 122,52 118,61 117,60 117,52 118,51 118,49 118,51 117,52 117,61 119,61 120,56 122,53 127,49" style="fill:none;stroke:black;stroke-width:1" />
<polygon points="457,47 457,48 459,47 471,54 489,61 471,54 462,48" style="fill:none;stroke:black;stroke-width:1" />
<polygon points="452,40 490,58 455,43 453,40 491,54" style="fill:none;stroke:black;stroke-width:1" />
<polygon points="67,39 67,41 64,45 62,50 55,58 60,53 60,52 64,47 67,41" style="fill:none;stroke:black;stroke-width:1" />
<polygon points="552,47 540,38 538,41 548,48 547,51 535,45 530,45 528,50 517,47 529,50 531,45 535,45 548,51 548,47 538,40 539,38" style="fill:none;stroke:black;stroke-width:1" />
<polygon points="450,31 458,38 491,52 462,40 452,31 511,55" style="fill:none;stroke:black;stroke-width:1" />
<polygon points="170,31 167,31 164,34 160,35 165,34 168,31 170,32 151,45 141,48 134,48 141,48 151,45 164,38 170,33" style="fill:none;stroke:black;stroke-width:1" />
<polygon points="766,30 755,44 781,91 798,101 787,104 808,106 786,103 798,100 781,90 755,45" style="fill:none;stroke:black;stroke-width:1" />
<polygon points="679,27 625,55 596,65 574,68 574,71 596,69 632,57 673,34" style="fill:none;stroke:black;stroke-width:1" />
<polygon points="679,28 632,57 596,69 574,71 575,68 625,55 677,26" style="fill:none;stroke:black;stroke-width:1" />
<polygon points="451,19 458,25 452,25 453,29 504,47 525,61 513,54 527,54 457,26 506,39 504,35" style="fill:none;stroke:black;stroke-width:1" />
<polygon points="452,26 494,39 527,55 516,54 505,47 460,32" style="fill:none;stroke:black;stroke-width:1" />
<polygon points="451,20 453,19 501,34 506,38 502,39 458,25" style="fill:none;stroke:black;stroke-width:1" />
<polygon points="856,17 858,19 858,18 857,17" style="fill:none;stroke:black;stroke-width:1" />
<polygon points="686,14 611,51 571,64 591,63 622,52 674,25" style="fill:none;stroke:black;stroke-width:1" />
<polygon points="686,15 622,52 591,63 571,63 611,51" style="fill:none;stroke:black;stroke-width:1" />
<polygon points="452,14 454,17 498,30 512,28 511,26 498,25" style="fill:none;stroke:black;stroke-width:1" />
<polygon points="452,15 457,14 489,23 512,27 507,30 498,30 469,22" style="fill:none;stroke:black;stroke-width:1" />
<polygon points="680,10 577,57 601,52 635,37" style="fill:none;stroke:black;stroke-width:1" />
<polygon points="680,11 615,46 592,55 577,56" style="fill:none;stroke:black;stroke-width:1" />
<polygon points="458,10 459,13 485,19 522,23 522,21" style="fill:none;stroke:black;stroke-width:1" />
<polygon points="458,11 465,10 522,22 511,23 495,21 459,13" style="fill:none;stroke:black;stroke-width:1" />
<polygon points="60,7 63,10 63,11 66,16 66,18 68,21 68,26 68,21 67,20 67,18 66,17 63,10" style="fill:none;stroke:black;stroke-width:1" />
<polygon points="662,4 615,21 607,30 636,18 609,30 607,28 620,19" style="fill:none;stroke:black;stroke-width:1" />
<polygon points="852,0 857,5 858,5 853,0" style="fill:none;stroke:black;stroke-width:1" />
<polygon points="839,0 843,2 849,7 850,7 857,14 858,14 851,7 847,5 844,2" style="fill:none;stroke:black;stroke-width:1" />
<polygon points="773,0 752,15 741,30 754,14 772,2" style="fill:none;stroke:black;stroke-width:1" />
<polygon points="768,0 725,40 726,103 762,139 830,139 813,65 808,87 776,20 757,33 776,13 746,36 772,6 741,32 773,7 746,37 776,14 757,35 776,21 800,103 813,66 825,126 762,121 824,128 825,91 832,137 742,121 812,141 774,143 726,103 725,40" style="fill:none;stroke:black;stroke-width:1" />
<polygon points="762,119 763,118 781,125 817,128 810,130 789,130 770,125" style="fill:none;stroke:black;stroke-width:1" />
<polygon points="772,117 778,116 795,120 815,120 816,121 809,123 790,123 779,121" style="fill:none;stroke:black;stroke-width:1" />
<polygon points="823,91 824,90 825,91 824,92" style="fill:none;stroke:black;stroke-width:1" />
<polygon points="749,6 727,29 716,61 718,91 733,121 785,149 820,146 851,130 820,146 785,149 733,120 718,91 716,61 724,35" style="fill:none;stroke:black;stroke-width:1" />
<polygon points="671,7 640,19 667,0 639,16 667,12 592,48 639,21 592,44 584,38 584,49" style="fill:none;stroke:black;stroke-width:1" />
<polygon points="669,8 670,7 671,8 670,9" style="fill:none;stroke:black;stroke-width:1" />
<polygon points="656,0 600,26 594,27 590,25 594,27 600,26" style="fill:none;stroke:black;stroke-width:1" />
<polygon points="637,0 635,0 618,9 619,8 621,8 629,4 633,1 635,1" style="fill:none;stroke:black;stroke-width:1" />
<polygon points="560,81 645,61 737,0 636,59 572,76 636,59 690,25 636,65 566,81 559,48 588,23 576,0 588,23 559,47" style="fill:none;stroke:black;stroke-width:1" />
<polygon points="557,0 546,8 543,27 554,40 568,41 581,32 584,15 576,3 566,0 581,9 584,25 571,40 555,40 543,27 543,15 552,3 562,0" style="fill:none;stroke:black;stroke-width:1" />
<polygon points="457,1 497,6 533,0 497,6" style="fill:none;stroke:black;stroke-width:1" />
<polygon points="427,0 531,17 538,36 532,17 490,13" style="fill:none;stroke:black;stroke-width:1" />
<polygon points="436,3 437,2 438,2 439,3 438,4 437,4" style="fill:none;stroke:black;stroke-width:1" />
<polygon points="434,2 435,1 436,1 437,2 436,3 435,3" style="fill:none;stroke:black;stroke-width:1" />
<polygon points="424,0 426,5 426,14 425,15 425,21 424,22 425,28 424,22 425,21 425,15 426,14 426,5" style="fill:none;stroke:black;stroke-width:1" />
<polygon points="398,0 398,9 399,10 399,12 399,10 398,9" style="fill:none;stroke:black;stroke-width:1" />
<polygon points="386,0 387,8 471,59 555,80 555,45 538,24 549,0 538,24 555,45 554,80 471,59" style="fill:none;stroke:black;stroke-width:1" />
<polygon points="375,0 377,0 378,1 379,1 380,2 382,2 382,0 382,1 381,2 380,2 379,1 378,1 377,0" style="fill:none;stroke:black;stroke-width:1" />
<polygon points="326,3 326,0 327,6 329,7 340,1 344,0 342,0 335,4 333,4 329,7" style="fill:none;stroke:black;stroke-width:1" />
<polygon points="235,0 235,8 236,9 236,14 236,9 235,8" style="fill:none;stroke:black;stroke-width:1" />
<polygon points="206,0 236,17 259,23 296,21 317,13 322,0 320,9 303,19 259,23 239,18" style="fill:none;stroke:black;stroke-width:1" />
<polygon points="201,0 264,27 375,3 340,100 371,144 422,107 386,12 553,84 532,133 577,180 560,85 744,0 560,84 568,166 532,133 554,84 387,12 421,112 353,134 376,3 264,27" style="fill:none;stroke:black;stroke-width:1" />
<polygon points="569,165 572,168 572,169 577,175 577,176 579,179 578,180 577,180 576,179 575,176 568,167 568,166" style="fill:none;stroke:black;stroke-width:1" />
<polygon points="143,107 203,69 274,81 311,25 378,11 263,35 189,0 258,34 312,28 274,81 203,69" style="fill:none;stroke:black;stroke-width:1" />
<polygon points="116,0 130,38 121,90 101,83 116,49 78,48 72,63 79,48 113,51 101,83 77,64 152,113 123,95 132,45 157,34 135,41 119,0 133,40 155,36 131,44" style="fill:none;stroke:black;stroke-width:1" />
<polygon points="131,44 131,64 122,98 116,94 121,91 125,82 129,62 129,45" style="fill:none;stroke:black;stroke-width:1" />
<polygon points="108,0 117,20 118,45 88,42 116,40 115,22 106,0 116,39 82,42 118,46 117,20" style="fill:none;stroke:black;stroke-width:1" />
<polygon points="59,0 71,21 70,41 64,53 37,70 16,68 1,57 19,69 37,70 51,65 64,54 70,41 71,21" style="fill:none;stroke:black;stroke-width:1" />
<polygon points="54,0 57,3 55,1 55,0" style="fill:none;stroke:black;stroke-width:1" />
<polygon points="2,0 0,2 0,3 2,1" style="fill:none;stroke:black;stroke-width:1" />
</svg>
